<svg width="25" height="24" viewBox="0 0 25 24" fill="none" xmlns="http://www.w3.org/2000/svg">
<path d="M19.0163 12.9678V21.1756H16.6851C16.4893 20.3069 16.1491 19.4771 15.6786 18.721C15.5098 18.4353 15.3214 18.1302 15.0942 17.8055L14.8928 17.5198C14.8928 17.5198 14.9968 17.0977 15.0942 16.3899C15.0942 16.2795 15.0941 16.1626 15.1396 16.0457C15.3928 13.9159 15.4643 9.88339 13.1915 6.64313L12.8604 6.22103C12.698 5.98727 12.5357 5.77298 12.3799 5.57168C12.2435 5.74701 12.1007 5.94182 11.9513 6.14962L11.5682 6.63663C9.26946 9.88339 9.34089 13.9094 9.62011 16.0393C9.62011 16.1756 9.62016 16.3055 9.67211 16.4289C9.71742 16.7936 9.78241 17.1556 9.86687 17.5133C9.79544 17.6042 9.73055 17.7016 9.67211 17.7925C9.44483 18.1172 9.25001 18.4419 9.08118 18.7146C8.61065 19.4707 8.27039 20.3004 8.07465 21.1691H5.75V12.9678C5.75 5.87689 10.9448 1.37687 11.1331 1.18856L12.4319 0.0976562L13.7306 1.18856C13.8539 1.40934 19.0163 5.87689 19.0163 12.9678Z" fill="#404BFF"/>
<path d="M15.0944 21.1689L12.3542 24.0001L9.60742 21.1754C9.87063 20.6826 10.2628 20.2704 10.742 19.9831C11.2212 19.6957 11.7694 19.5439 12.3282 19.5439C12.8869 19.5439 13.4352 19.6957 13.9144 19.9831C14.3936 20.2704 14.7857 20.6826 15.0489 21.1754L15.0944 21.1689Z" fill="#FF6006"/>
</svg>
