<svg width="20" height="20" viewBox="0 0 20 20" fill="none" xmlns="http://www.w3.org/2000/svg">
<path d="M9.99935 18.3337C14.6017 18.3337 18.3327 14.6027 18.3327 10.0003C18.3327 5.39795 14.6017 1.66699 9.99935 1.66699C5.39698 1.66699 1.66602 5.39795 1.66602 10.0003C1.66602 14.6027 5.39698 18.3337 9.99935 18.3337Z" stroke="white" stroke-width="1.66667" stroke-linecap="round" stroke-linejoin="round"/>
<path d="M7.91602 7.47144C7.91602 7.0737 7.91602 6.87483 7.99913 6.76381C8.07157 6.66705 8.18244 6.60652 8.303 6.59791C8.44134 6.58803 8.60862 6.69557 8.94319 6.91065L12.877 9.43954C13.1673 9.62617 13.3125 9.71949 13.3626 9.83815C13.4064 9.94183 13.4064 10.0588 13.3626 10.1625C13.3125 10.2812 13.1673 10.3745 12.877 10.5611L8.94319 13.09C8.60862 13.3051 8.44134 13.4126 8.303 13.4027C8.18244 13.3941 8.07157 13.3336 7.99913 13.2368C7.91602 13.1258 7.91602 12.927 7.91602 12.5292V7.47144Z" stroke="white" stroke-width="1.66667" stroke-linecap="round" stroke-linejoin="round"/>
</svg>
